<?xml version="1.0" encoding="UTF-8" standalone="no"?>
<!-- Created with Inkscape (http://www.inkscape.org/) -->

<svg
        xmlns:inkscape="http://www.inkscape.org/namespaces/inkscape"
        xmlns:sodipodi="http://sodipodi.sourceforge.net/DTD/sodipodi-0.dtd"
        xmlns:xlink="http://www.w3.org/1999/xlink"
        width="1200"
        height="627"
        viewBox="0 0 1200 627"
        version="1.1"
        id="svg1"
        inkscape:version="1.3.2 (091e20e, 2023-11-25, custom)"
        sodipodi:docname="cactusbanner_nologo.svg"
        xmlns="http://www.w3.org/2000/svg"
>
    <sodipodi:namedview
            id="namedview1"
            pagecolor="#505050"
            bordercolor="#eeeeee"
            borderopacity="1"
            inkscape:showpageshadow="0"
            inkscape:pageopacity="0"
            inkscape:pagecheckerboard="0"
            inkscape:deskcolor="#505050"
            inkscape:document-units="px"
            inkscape:zoom="0.41208333"
            inkscape:cx="607.88675"
            inkscape:cy="314.25682"
            inkscape:window-width="1920"
            inkscape:window-height="1017"
            inkscape:window-x="1912"
            inkscape:window-y="-8"
            inkscape:window-maximized="1"
            inkscape:current-layer="layer1"/>
    <defs
            id="defs1">
        <inkscape:path-effect
                effect="powerstroke"
                id="path-effect9"
                is_visible="true"
                lpeversion="1.3"
                scale_width="1"
                interpolator_type="CentripetalCatmullRom"
                interpolator_beta="0.2"
                start_linecap_type="zerowidth"
                end_linecap_type="zerowidth"
                offset_points="0,-0.78253559 | 1,-1.1370321"
                linejoin_type="round"
                miter_limit="4"
                not_jump="false"
                sort_points="true"
                message="&lt;b&gt;Ctrl + click&lt;/b&gt; on existing node and move it"/>
        <inkscape:path-effect
                effect="powerstroke"
                id="path-effect7"
                is_visible="true"
                lpeversion="1.3"
                scale_width="1"
                interpolator_type="CentripetalCatmullRom"
                interpolator_beta="0.2"
                start_linecap_type="zerowidth"
                end_linecap_type="zerowidth"
                offset_points="0,-0.78253559 | 1,-1.1370321"
                linejoin_type="round"
                miter_limit="4"
                not_jump="false"
                sort_points="true"
                message="&lt;b&gt;Ctrl + click&lt;/b&gt; on existing node and move it"/>
        <linearGradient
                inkscape:collect="always"
                xlink:href="#linearGradient1"
                id="linearGradient2"
                x1="-0.026488822"
                y1="13.246947"
                x2="26.479708"
                y2="13.246947"
                gradientUnits="userSpaceOnUse"
                gradientTransform="matrix(45.389884,0,0,23.73785,1.1022093,-0.74765559)"/>
        <linearGradient
                id="linearGradient1"
                inkscape:collect="always">
            <stop
                    style="stop-color:#2600a3;stop-opacity:1;"
                    offset="0"
                    id="stop1"/>
            <stop
                    style="stop-color:#800080;stop-opacity:1;"
                    offset="1"
                    id="stop2"/>
        </linearGradient>
    </defs>
    <g
            inkscape:label="Layer 1"
            inkscape:groupmode="layer"
            id="layer1">
        <rect
                style="fill:url(#linearGradient2);stroke-width:8.68484"
                id="rect1"
                width="1203.1132"
                height="627.12958"
                x="-0.10011523"
                y="0.14158429"
                ry="0"
                rx="0"/>
        <path
                d="m 326.13725,323.6307 q 0,4.35316 -2.17658,9.45257 -2.11439,5.03723 -6.7163,9.95008 -4.60191,4.85066 -11.75353,7.89787 -7.15162,3.04722 -16.66638,3.04722 -7.21381,0 -13.12167,-1.36814 -5.90786,-1.36814 -10.75852,-4.22878 -4.78848,-2.92284 -8.8307,-7.64913 -3.6069,-4.29097 -6.15661,-9.57695 -2.5497,-5.34816 -3.85565,-11.3804 -1.24376,-6.03223 -1.24376,-12.81072 0,-11.00728 3.17159,-19.7136 3.23377,-8.70631 9.20382,-14.86292 5.97005,-6.2188 13.9923,-9.45258 8.02225,-3.23377 17.10169,-3.23377 11.06946,0 19.7136,4.41534 8.64413,4.41535 13.24604,10.94509 4.60191,6.46755 4.60191,12.25103 0,3.17159 -2.23877,5.59692 -2.23877,2.42533 -5.41035,2.42533 -3.54472,0 -5.34817,-1.67907 -1.74127,-1.67908 -3.91784,-5.78349 -3.60691,-6.77849 -8.51976,-10.13664 -4.85066,-3.35815 -12.00228,-3.35815 -11.3804,0 -18.15889,8.64413 -6.71631,8.64413 -6.71631,24.56426 0,10.63414 2.98503,17.72357 2.98502,7.02725 8.45756,10.50977 5.47255,3.48253 12.81073,3.48253 7.96006,0 13.4326,-3.91784 5.53474,-3.98003 8.33319,-11.62916 1.18158,-3.6069 2.92284,-5.84567 1.74126,-2.30095 5.59692,-2.30095 3.29596,0 5.65911,2.30095 2.36314,2.30096 2.36314,5.7213 z m 58.33234,20.77079 q -6.15662,4.78847 -11.9401,7.2138 -5.72129,2.36315 -12.87291,2.36315 -6.52974,0 -11.50478,-2.54971 -4.91285,-2.6119 -7.58693,-7.02724 -2.67409,-4.41535 -2.67409,-9.57695 0,-6.96506 4.41535,-11.87791 4.41535,-4.91285 12.12666,-6.59193 1.61688,-0.37312 8.02225,-1.67907 6.40536,-1.30595 10.94508,-2.36315 4.60191,-1.11938 9.95008,-2.67408 -0.31094,-6.7163 -2.73627,-9.8257 -2.36314,-3.17159 -9.88789,-3.17159 -6.46755,0 -9.76351,1.80345 -3.23378,1.80345 -5.59692,5.41036 -2.30096,3.6069 -3.29597,4.78847 -0.93282,1.11939 -4.1044,1.11939 -2.86065,0 -4.97504,-1.80346 -2.05221,-1.86563 -2.05221,-4.72628 0,-4.47754 3.17159,-8.70632 3.17159,-4.22878 9.88789,-6.96506 6.7163,-2.73627 16.72857,-2.73627 11.19384,0 17.5992,2.67409 6.40536,2.61189 9.01726,8.33319 2.67408,5.72129 2.67408,15.17387 0,5.97004 -0.0622,10.13664 0,4.16659 -0.0622,9.26601 0,4.78847 1.5547,10.01226 1.61688,5.16161 1.61688,6.65412 0,2.6119 -2.48752,4.78847 -2.42533,2.1144 -5.53473,2.1144 -2.61189,0 -5.1616,-2.42534 -2.54971,-2.48751 -5.41035,-7.15161 z m -1.11939,-24.56426 q -3.73128,1.36814 -10.8829,2.92284 -7.08943,1.49251 -9.8257,2.23876 -2.73627,0.68407 -5.22379,2.79846 -2.48752,2.05221 -2.48752,5.78349 0,3.85565 2.92284,6.59192 2.92283,2.67409 7.64912,2.67409 5.03723,0 9.26601,-2.17658 4.29097,-2.23877 6.28099,-5.7213 2.30095,-3.85565 2.30095,-12.68635 z m 94.7745,13.12167 q 0,3.17158 -1.92783,6.77849 -1.86564,3.6069 -5.78348,6.90286 -3.85566,3.23378 -9.76352,5.22379 -5.90785,1.99002 -13.30823,1.99002 -15.73356,0 -24.56425,-9.14163 -8.83069,-9.20383 -8.83069,-24.62645 0,-10.44758 4.04221,-18.46983 4.04222,-8.02225 11.69135,-12.37541 7.64912,-4.41535 18.28326,-4.41535 6.59193,0 12.06447,1.92783 5.53474,1.92783 9.3282,4.97504 3.85566,3.04721 5.84567,6.52974 2.05221,3.42034 2.05221,6.40536 0,3.04721 -2.30096,5.1616 -2.23877,2.1144 -5.47254,2.1144 -2.11439,0 -3.54472,-1.0572 -1.36813,-1.11938 -3.1094,-3.54471 -3.1094,-4.72629 -6.52973,-7.08944 -3.35816,-2.36314 -8.58195,-2.36314 -7.52474,0 -12.12665,5.90786 -4.60192,5.84567 -4.60192,16.0445 0,4.78848 1.18158,8.8307 1.18157,3.98003 3.42034,6.84067 2.23876,2.79846 5.41035,4.29097 3.17159,1.43033 6.96505,1.43033 5.09942,0 8.70632,-2.36314 3.66909,-2.36315 6.46755,-7.21381 1.5547,-2.86065 3.35816,-4.47754 1.80345,-1.61688 4.41534,-1.61688 3.1094,0 5.16161,2.36314 2.0522,2.36314 2.0522,5.03723 z m 15.73356,-46.51662 h 1.86564 v -10.19883 q 0,-4.10441 0.18657,-6.40536 0.24875,-2.36315 1.24376,-4.04222 0.995,-1.74126 2.86064,-2.79846 1.86564,-1.11938 4.1666,-1.11938 3.23377,0 5.84567,2.42533 1.74126,1.61688 2.17658,3.98003 0.4975,2.30095 0.4975,6.59193 v 11.56696 h 6.2188 q 3.60691,0 5.47255,1.74126 1.92782,1.67908 1.92782,4.35316 0,3.42034 -2.73627,4.78848 -2.67408,1.36813 -7.71131,1.36813 h -3.17159 v 31.21837 q 0,3.98004 0.24876,6.15662 0.31094,2.11439 1.49251,3.48252 1.24376,1.30595 3.98003,1.30595 1.49251,0 4.04222,-0.4975 2.54971,-0.5597 3.98003,-0.5597 2.0522,0 3.66909,1.67908 1.67908,1.61689 1.67908,4.04222 0,4.10441 -4.47754,6.28099 -4.47753,2.17658 -12.87291,2.17658 -7.96007,0 -12.06447,-2.67409 -4.10441,-2.67408 -5.41036,-7.40037 -1.24376,-4.72628 -1.24376,-12.62416 v -32.58651 h -2.23876 q -3.6691,0 -5.59692,-1.74126 -1.92783,-1.74126 -1.92783,-4.41535 0,-2.67408 1.99001,-4.35316 2.05221,-1.74126 5.90786,-1.74126 z m 88.24476,57.95921 v -2.17658 q -3.04722,3.85565 -6.40537,6.46755 -3.35815,2.61189 -7.33818,3.85565 -3.98003,1.30595 -9.07945,1.30595 -6.15661,0 -11.06946,-2.54971 -4.85066,-2.5497 -7.52474,-7.02724 -3.17159,-5.41035 -3.17159,-15.547 v -33.6437 q 0,-5.09941 2.30095,-7.58693 2.30096,-2.54971 6.09443,-2.54971 3.85565,0 6.2188,2.54971 2.36314,2.5497 2.36314,7.58693 v 27.17615 q 0,5.90786 0.99501,9.95008 0.995,3.98003 3.54471,6.28099 2.6119,2.23876 7.02724,2.23876 4.29098,0 8.08444,-2.5497 3.79347,-2.54971 5.53473,-6.65412 1.43033,-3.6069 1.43033,-15.79575 v -20.64641 q 0,-5.03723 2.36314,-7.58693 2.36314,-2.54971 6.15661,-2.54971 3.79347,0 6.09443,2.54971 2.30095,2.48752 2.30095,7.58693 v 49.1907 q 0,4.85066 -2.23877,7.27599 -2.17658,2.42534 -5.6591,2.42534 -3.48253,0 -5.78349,-2.48752 -2.23876,-2.54971 -2.23876,-7.08943 z m 87.4985,-12.62417 q 0,7.02725 -3.42034,12.06447 -3.42034,4.97504 -10.13664,7.58694 -6.65412,2.54971 -16.23107,2.54971 -9.14163,0 -15.67137,-2.79846 -6.52974,-2.79846 -9.63914,-6.96506 -3.1094,-4.22878 -3.1094,-8.45756 0,-2.79846 1.99002,-4.78848 1.99001,-1.99002 5.03722,-1.99002 2.67409,0 4.10441,1.30595 1.43032,1.30595 2.73627,3.66909 2.6119,4.53973 6.2188,6.77849 3.66909,2.23877 9.95008,2.23877 5.09941,0 8.33319,-2.23877 3.29596,-2.30095 3.29596,-5.22379 0,-4.47753 -3.42034,-6.52974 -3.35815,-2.0522 -11.13165,-3.91784 -8.7685,-2.17658 -14.30323,-4.53972 -5.47255,-2.42533 -8.76851,-6.34318 -3.29596,-3.91784 -3.29596,-9.63913 0,-5.09942 3.04721,-9.63914 3.04721,-4.53973 8.95507,-7.21381 5.97005,-2.73627 14.36542,-2.73627 6.59193,0 11.81572,1.36813 5.28598,1.36814 8.76851,3.6691 3.54471,2.30095 5.34816,5.09941 1.86564,2.79846 1.86564,5.47254 0,2.92284 -1.99001,4.78848 -1.92783,1.86564 -5.53473,1.86564 -2.6119,0 -4.47754,-1.49251 -1.80345,-1.49251 -4.16659,-4.47754 -1.92783,-2.48752 -4.53973,-3.98003 -2.61189,-1.49251 -7.08943,-1.49251 -4.60191,0 -7.64912,1.99001 -3.04721,1.92783 -3.04721,4.85067 0,2.67408 2.23877,4.41535 2.23876,1.67907 6.03223,2.79845 3.79347,1.11939 10.44758,2.73628 7.89788,1.92782 12.87292,4.60191 5.03722,2.67408 7.58693,6.34317 2.6119,3.60691 2.6119,8.271 z m 19.27827,22.20112 q -3.85566,0 -6.65412,-2.48752 -2.79846,-2.48752 -2.79846,-6.96506 0,-3.79347 2.67409,-6.52974 2.67408,-2.73627 6.59192,-2.73627 3.91785,0 6.65412,2.73627 2.79846,2.67409 2.79846,6.52974 0,4.41535 -2.79846,6.96506 -2.73627,2.48752 -6.46755,2.48752 z m 53.85481,-83.20753 35.50934,53.73042 V 270.2734 q 0,-5.28597 2.23877,-7.89787 2.30096,-2.67408 6.15661,-2.67408 3.98003,0 6.28099,2.67408 2.30096,2.6119 2.30096,7.89787 v 71.70275 q 0,12.00229 -9.95008,12.00229 -2.48752,0 -4.47754,-0.74626 -1.99001,-0.68407 -3.73128,-2.23877 -1.74126,-1.5547 -3.23377,-3.6069 -1.49251,-2.11439 -2.98503,-4.29097 L 736.20486,289.987 v 53.41948 q 0,5.22379 -2.42533,7.89787 -2.42533,2.67409 -6.2188,2.67409 -3.91784,0 -6.28098,-2.67409 -2.36315,-2.73627 -2.36315,-7.89787 v -70.33462 q 0,-4.47753 0.99501,-7.02724 1.18157,-2.79846 3.91785,-4.53972 2.73627,-1.80345 5.90785,-1.80345 2.48752,0 4.22879,0.80844 1.80345,0.80844 3.1094,2.17658 1.36813,1.36814 2.73627,3.54471 1.43032,2.17658 2.92283,4.53973 z m 132.7713,4.72629 h -41.60372 v 22.38767 h 38.3078 q 4.22882,0 6.28102,1.92783 2.1144,1.86564 2.1144,4.97504 0,3.1094 -2.0522,5.09941 -2.0522,1.92783 -6.34322,1.92783 h -38.3078 v 25.93239 h 43.03412 q 4.3531,0 6.5297,2.0522 2.2388,1.99002 2.2388,5.34817 0,3.23378 -2.2388,5.28598 -2.1766,1.99002 -6.5297,1.99002 h -50.18574 q -6.03223,0 -8.70632,-2.67409 -2.61189,-2.67408 -2.61189,-8.64413 v -68.53116 q 0,-3.98003 1.18157,-6.46755 1.18157,-2.54971 3.66909,-3.66909 2.54971,-1.18157 6.46755,-1.18157 h 48.75534 q 4.4154,0 6.5298,1.99001 2.1766,1.92783 2.1766,5.09942 0,3.23377 -2.1766,5.22379 -2.1144,1.92783 -6.5298,1.92783 z m 84.0782,0.995 h -20.1489 v 66.23021 q 0,5.7213 -2.5497,8.51975 -2.5497,2.73628 -6.5919,2.73628 -4.1044,0 -6.7163,-2.79846 -2.5497,-2.79846 -2.5497,-8.45757 V 276.4922 h -20.149 q -4.7262,0 -7.0272,-2.0522 -2.301,-2.11439 -2.301,-5.53473 0,-3.54472 2.3632,-5.59692 2.4253,-2.0522 6.965,-2.0522 h 58.7055 q 4.7885,0 7.0894,2.11439 2.3632,2.11439 2.3632,5.53473 0,3.42034 -2.3632,5.53473 -2.3631,2.0522 -7.0894,2.0522 z"
                id="text1"
                style="font-size:127.361px;font-family:'Arial Rounded MT Bold';-inkscape-font-specification:'Arial Rounded MT Bold, ';fill:#ffffff;stroke-width:5.30671"
                aria-label="Cactus.NET"/>
        <path
                d="M 265.86065,372.77505 H 255.5861 v 6.58624 h 8.58847 q 1.19431,0 1.7739,0.54447 0.59715,0.5269 0.59715,1.42263 0,0.89573 -0.59715,1.42263 -0.59716,0.5269 -1.7739,0.5269 h -8.58847 v 8.48309 q 0,1.61582 -0.73766,2.40617 -0.7201,0.77279 -1.86171,0.77279 -1.15918,0 -1.89684,-0.79035 -0.7201,-0.79035 -0.7201,-2.38861 v -19.81144 q 0,-1.12405 0.33371,-1.82659 0.3337,-0.72009 1.03623,-1.03623 0.7201,-0.33371 1.82659,-0.33371 h 12.29433 q 1.247,0 1.84415,0.56203 0.61472,0.54446 0.61472,1.44019 0,0.9133 -0.61472,1.47532 -0.59715,0.54447 -1.84415,0.54447 z m 9.39638,15.24497 v 4.00444 q 0,1.45775 -0.68497,2.19541 -0.68497,0.7201 -1.73877,0.7201 -1.03623,0 -1.70364,-0.73766 -0.66741,-0.73766 -0.66741,-2.17785 v -13.34814 q 0,-3.23165 2.33593,-3.23165 1.1943,0 1.7212,0.75523 0.5269,0.75522 0.57959,2.23054 0.8606,-1.47532 1.75633,-2.23054 0.9133,-0.75523 2.42374,-0.75523 1.51045,0 2.93308,0.75523 1.42263,0.75522 1.42263,2.00221 0,0.87817 -0.61472,1.45776 -0.59715,0.56203 -1.29968,0.56203 -0.26345,0 -1.28213,-0.31614 -1.00111,-0.33371 -1.77389,-0.33371 -1.0538,0 -1.72121,0.56203 -0.66741,0.54446 -1.03624,1.63339 -0.36883,1.08893 -0.50933,2.59937 -0.14051,1.49289 -0.14051,3.65318 z m 23.48217,-1.65096 h -9.37881 q 0.0176,1.63339 0.64984,2.88039 0.64984,1.247 1.70364,1.87928 1.07137,0.63228 2.35349,0.63228 0.8606,0 1.56313,-0.1932 0.7201,-0.21076 1.38751,-0.63228 0.6674,-0.43908 1.22943,-0.93086 0.56203,-0.49177 1.45776,-1.33481 0.36883,-0.31614 1.0538,-0.31614 0.73766,0 1.1943,0.40396 0.45665,0.40395 0.45665,1.14161 0,0.64985 -0.50934,1.52801 -0.50933,0.86061 -1.54557,1.66852 -1.01867,0.79035 -2.58181,1.31725 -1.54557,0.5269 -3.56536,0.5269 -4.61915,0 -7.1834,-2.6345 -2.56424,-2.6345 -2.56424,-7.14828 0,-2.12516 0.63228,-3.93418 0.63228,-1.82659 1.84415,-3.12628 1.21187,-1.29968 2.98576,-1.98465 1.7739,-0.70253 3.93419,-0.70253 2.81013,0 4.81235,1.1943 2.01978,1.17674 3.02089,3.05602 1.00111,1.87928 1.00111,3.82881 0,1.80902 -1.03623,2.35348 -1.03624,0.5269 -2.91552,0.5269 z m -9.37881,-2.72231 h 8.69384 q -0.17563,-2.45887 -1.33481,-3.67074 -1.14162,-1.22943 -3.02089,-1.22943 -1.79146,0 -2.95064,1.24699 -1.14162,1.22944 -1.3875,3.65318 z m 30.75339,2.72231 h -9.37882 q 0.0176,1.63339 0.64984,2.88039 0.64985,1.247 1.70364,1.87928 1.07137,0.63228 2.35349,0.63228 0.8606,0 1.56314,-0.1932 0.72009,-0.21076 1.3875,-0.63228 0.66741,-0.43908 1.22943,-0.93086 0.56203,-0.49177 1.45776,-1.33481 0.36883,-0.31614 1.0538,-0.31614 0.73766,0 1.19431,0.40396 0.45664,0.40395 0.45664,1.14161 0,0.64985 -0.50933,1.52801 -0.50934,0.86061 -1.54558,1.66852 -1.01867,0.79035 -2.58181,1.31725 -1.54557,0.5269 -3.56535,0.5269 -4.61916,0 -7.1834,-2.6345 -2.56425,-2.6345 -2.56425,-7.14828 0,-2.12516 0.63228,-3.93418 0.63228,-1.82659 1.84415,-3.12628 1.21187,-1.29968 2.98577,-1.98465 1.77389,-0.70253 3.93418,-0.70253 2.81013,0 4.81235,1.1943 2.01979,1.17674 3.0209,3.05602 1.00111,1.87928 1.00111,3.82881 0,1.80902 -1.03624,2.35348 -1.03624,0.5269 -2.91551,0.5269 z m -9.37882,-2.72231 h 8.69385 q -0.17564,-2.45887 -1.33482,-3.67074 -1.14161,-1.22943 -3.02089,-1.22943 -1.79146,0 -2.95064,1.24699 -1.14161,1.22944 -1.3875,3.65318 z m 38.48125,8.58847 q -1.73877,1.35237 -3.37216,2.03734 -1.61582,0.66741 -3.6356,0.66741 -1.84415,0 -3.24922,-0.7201 -1.3875,-0.73766 -2.14273,-1.98465 -0.75522,-1.247 -0.75522,-2.70476 0,-1.96709 1.247,-3.35459 1.24699,-1.38751 3.42485,-1.86172 0.45664,-0.10538 2.26567,-0.47421 1.80902,-0.36883 3.09114,-0.6674 1.29969,-0.31614 2.81013,-0.75523 -0.0878,-1.89684 -0.77278,-2.775 -0.66741,-0.89573 -2.79257,-0.89573 -1.82659,0 -2.75744,0.50933 -0.9133,0.50934 -1.5807,1.52801 -0.64985,1.01868 -0.93086,1.35238 -0.26345,0.31614 -1.15918,0.31614 -0.80791,0 -1.40507,-0.50934 -0.57959,-0.5269 -0.57959,-1.33481 0,-1.26456 0.89573,-2.45887 0.89573,-1.1943 2.79257,-1.96709 1.89684,-0.77278 4.72454,-0.77278 3.1614,0 4.97042,0.75522 1.80902,0.73766 2.54668,2.35348 0.75523,1.61583 0.75523,4.28546 0,1.68608 -0.0176,2.86282 0,1.17674 -0.0176,2.61694 0,1.35237 0.43908,2.82769 0.45665,1.45776 0.45665,1.87928 0,0.73766 -0.70253,1.35238 -0.68497,0.59715 -1.56314,0.59715 -0.73766,0 -1.45776,-0.68497 -0.72009,-0.70253 -1.52801,-2.01978 z m -0.31614,-6.93752 q -1.0538,0.38639 -3.07358,0.82548 -2.00222,0.42152 -2.775,0.63228 -0.77279,0.19319 -1.47532,0.79035 -0.70254,0.57959 -0.70254,1.63339 0,1.08892 0.82548,1.86171 0.82548,0.75522 2.16029,0.75522 1.42263,0 2.61693,-0.61471 1.21187,-0.63228 1.7739,-1.61583 0.64984,-1.08893 0.64984,-3.58292 z m 13.92772,-7.20097 v 0.57959 q 1.26456,-1.66851 2.75745,-2.4413 1.51044,-0.79035 3.45997,-0.79035 1.89684,0 3.38973,0.82548 1.49288,0.82547 2.23054,2.33592 0.47421,0.87817 0.61472,1.89684 0.1405,1.01867 0.1405,2.59937 v 8.92218 q 0,1.44019 -0.6674,2.17785 -0.64985,0.73766 -1.70365,0.73766 -1.07136,0 -1.73877,-0.75522 -0.6674,-0.75523 -0.6674,-2.16029 v -7.99132 q 0,-2.37105 -0.66741,-3.61805 -0.64984,-1.26456 -2.61694,-1.26456 -1.28212,0 -2.33592,0.77279 -1.0538,0.75522 -1.54557,2.09004 -0.35127,1.07136 -0.35127,4.00444 v 6.00666 q 0,1.45775 -0.68497,2.19541 -0.66741,0.7201 -1.73877,0.7201 -1.03623,0 -1.70364,-0.75522 -0.66741,-0.75523 -0.66741,-2.16029 v -13.85747 q 0,-1.36994 0.59716,-2.03735 0.59715,-0.68497 1.63339,-0.68497 0.63228,0 1.14161,0.29858 0.50934,0.29858 0.80791,0.89573 0.31614,0.59715 0.31614,1.45775 z m 30.50751,14.10336 v -0.47421 q -0.96599,1.10649 -1.91441,1.80902 -0.93085,0.68497 -2.03734,1.03624 -1.08893,0.36883 -2.38861,0.36883 -1.72121,0 -3.19653,-0.7201 -1.45776,-0.73766 -2.52912,-2.09003 -1.07136,-1.35238 -1.63339,-3.17897 -0.54446,-1.82658 -0.54446,-3.95175 0,-4.49621 2.19541,-7.00777 2.19542,-2.51155 5.77834,-2.51155 2.07247,0 3.4951,0.7201 1.42263,0.70253 2.77501,2.17785 v -7.07802 q 0,-1.47532 0.57959,-2.23055 0.59715,-0.75522 1.68608,-0.75522 1.08892,0 1.66851,0.70253 0.59716,0.68497 0.59716,2.03735 v 21.14625 q 0,1.36994 -0.63228,2.05491 -0.63228,0.68497 -1.63339,0.68497 -0.98355,0 -1.63339,-0.70253 -0.63228,-0.7201 -0.63228,-2.03735 z m -9.43151,-7.0429 q 0,1.94953 0.59715,3.31947 0.61472,1.36994 1.66852,2.07248 1.0538,0.68497 2.3008,0.68497 1.26455,0 2.30079,-0.64985 1.0538,-0.6674 1.66852,-2.01978 0.63228,-1.36994 0.63228,-3.40729 0,-1.9144 -0.63228,-3.28434 -0.61472,-1.3875 -1.68608,-2.1076 -1.0538,-0.73766 -2.31836,-0.73766 -1.31725,0 -2.35349,0.75522 -1.03623,0.73766 -1.61582,2.14273 -0.56203,1.3875 -0.56203,3.23165 z m 45.71736,0.0351 q 0,2.14273 -0.66741,3.95175 -0.66741,1.80902 -1.93197,3.10871 -1.26456,1.29969 -3.02089,2.00222 -1.75633,0.68497 -3.95175,0.68497 -2.17785,0 -3.91662,-0.70253 -1.73877,-0.70254 -3.02089,-2.00222 -1.26456,-1.31725 -1.93197,-3.09115 -0.64984,-1.79146 -0.64984,-3.95175 0,-2.17785 0.6674,-3.98688 0.66741,-1.80902 1.91441,-3.09114 1.24699,-1.28212 3.02089,-1.96709 1.77389,-0.70254 3.91662,-0.70254 2.17785,0 3.95175,0.70254 1.7739,0.70253 3.03846,2.00221 1.26456,1.29969 1.9144,3.09115 0.66741,1.79146 0.66741,3.95175 z m -4.81236,0 q 0,-2.93308 -1.29968,-4.56647 -1.28213,-1.63339 -3.45998,-1.63339 -1.40507,0 -2.47643,0.73766 -1.07136,0.7201 -1.65095,2.14273 -0.57959,1.42263 -0.57959,3.31947 0,1.87928 0.56202,3.28434 0.57959,1.40507 1.63339,2.16029 1.07137,0.73766 2.51156,0.73766 2.17785,0 3.45998,-1.63339 1.29968,-1.65095 1.29968,-4.5489 z m 13.01442,-7.06046 v 0.57959 q 1.35238,-1.66852 2.81013,-2.4413 1.45776,-0.79035 3.30191,-0.79035 2.21298,0 4.07469,1.14162 1.86172,1.14161 2.93308,3.33703 1.08893,2.19541 1.08893,5.19874 0,2.21298 -0.63228,4.0747 -0.61472,1.84415 -1.70365,3.10871 -1.08892,1.24699 -2.58181,1.93196 -1.47532,0.66741 -3.17896,0.66741 -2.05491,0 -3.45998,-0.82548 -1.3875,-0.82547 -2.65206,-2.42374 v 7.20097 q 0,3.1614 -2.30079,3.1614 -1.35238,0 -1.79146,-0.82548 -0.43909,-0.80791 -0.43909,-2.37105 v -20.6896 q 0,-1.36994 0.59716,-2.03735 0.59715,-0.68497 1.63339,-0.68497 1.01867,0 1.65095,0.70254 0.64984,0.68497 0.64984,1.98465 z m 9.39638,6.97264 q 0,-1.89684 -0.57959,-3.24921 -0.57959,-1.36994 -1.61582,-2.09004 -1.01868,-0.73766 -2.26567,-0.73766 -1.98466,0 -3.3546,1.56314 -1.35238,1.56313 -1.35238,4.60159 0,2.86282 1.35238,4.46109 1.35238,1.5807 3.3546,1.5807 1.1943,0 2.21298,-0.68497 1.01867,-0.70254 1.63339,-2.09004 0.61471,-1.3875 0.61471,-3.3546 z m 22.04198,1.26456 h -9.37881 q 0.0176,1.63339 0.64984,2.88039 0.64984,1.247 1.70364,1.87928 1.07136,0.63228 2.35349,0.63228 0.8606,0 1.56313,-0.1932 0.7201,-0.21076 1.38751,-0.63228 0.6674,-0.43908 1.22943,-0.93086 0.56203,-0.49177 1.45776,-1.33481 0.36883,-0.31614 1.0538,-0.31614 0.73766,0 1.1943,0.40396 0.45665,0.40395 0.45665,1.14161 0,0.64985 -0.50934,1.52801 -0.50933,0.86061 -1.54557,1.66852 -1.01867,0.79035 -2.58181,1.31725 -1.54557,0.5269 -3.56536,0.5269 -4.61915,0 -7.1834,-2.6345 -2.56424,-2.6345 -2.56424,-7.14828 0,-2.12516 0.63228,-3.93418 0.63228,-1.82659 1.84415,-3.12628 1.21187,-1.29968 2.98576,-1.98465 1.7739,-0.70253 3.93419,-0.70253 2.81013,0 4.81235,1.1943 2.01978,1.17674 3.02089,3.05602 1.00111,1.87928 1.00111,3.82881 0,1.80902 -1.03623,2.35348 -1.03624,0.5269 -2.91552,0.5269 z m -9.37881,-2.72231 h 8.69384 q -0.17563,-2.45887 -1.33481,-3.67074 -1.14162,-1.22943 -3.02089,-1.22943 -1.79146,0 -2.95064,1.24699 -1.14162,1.22944 -1.3875,3.65318 z m 21.72583,-5.55002 v 0.57959 q 1.26456,-1.66851 2.75745,-2.4413 1.51044,-0.79035 3.45997,-0.79035 1.89684,0 3.38973,0.82548 1.49288,0.82547 2.23054,2.33592 0.47421,0.87817 0.61472,1.89684 0.1405,1.01867 0.1405,2.59937 v 8.92218 q 0,1.44019 -0.6674,2.17785 -0.64985,0.73766 -1.70365,0.73766 -1.07136,0 -1.73877,-0.75522 -0.6674,-0.75523 -0.6674,-2.16029 v -7.99132 q 0,-2.37105 -0.66741,-3.61805 -0.64984,-1.26456 -2.61694,-1.26456 -1.28212,0 -2.33592,0.77279 -1.0538,0.75522 -1.54557,2.09004 -0.35127,1.07136 -0.35127,4.00444 v 6.00666 q 0,1.45775 -0.68497,2.19541 -0.66741,0.7201 -1.73877,0.7201 -1.03623,0 -1.70364,-0.75522 -0.66741,-0.75523 -0.66741,-2.16029 v -13.85747 q 0,-1.36994 0.59716,-2.03735 0.59715,-0.68497 1.63339,-0.68497 0.63227,0 1.14161,0.29858 0.50934,0.29858 0.80791,0.89573 0.31614,0.59715 0.31614,1.45775 z m 23.67538,9.16806 h -5.55001 q -1.26456,0 -1.93197,-0.57959 -0.64984,-0.59715 -0.64984,-1.52801 0,-0.94842 0.63228,-1.52801 0.64984,-0.59715 1.94953,-0.59715 h 5.55001 q 1.29969,0 1.93197,0.59715 0.64984,0.57959 0.64984,1.52801 0,0.93086 -0.63228,1.52801 -0.63228,0.57959 -1.94953,0.57959 z m 21.11113,1.40507 q 0,1.98466 -0.96599,3.40729 -0.96598,1.40506 -2.86282,2.14272 -1.87928,0.7201 -4.58403,0.7201 -2.58181,0 -4.42596,-0.79035 -1.84415,-0.79035 -2.72231,-1.96709 -0.87817,-1.19431 -0.87817,-2.38862 0,-0.79035 0.56203,-1.35237 0.56202,-0.56203 1.42263,-0.56203 0.75522,0 1.15918,0.36883 0.40395,0.36883 0.77278,1.03624 0.73766,1.28212 1.75634,1.9144 1.03623,0.63228 2.81013,0.63228 1.44019,0 2.35348,-0.63228 0.93086,-0.64984 0.93086,-1.47532 0,-1.26456 -0.96598,-1.84415 -0.94842,-0.57959 -3.14384,-1.10649 -2.47643,-0.61472 -4.03956,-1.28212 -1.54558,-0.68497 -2.47643,-1.79146 -0.93086,-1.10649 -0.93086,-2.72232 0,-1.44019 0.8606,-2.72232 0.86061,-1.28212 2.52912,-2.03734 1.68608,-0.77279 4.05713,-0.77279 1.86171,0 3.33703,0.3864 1.49289,0.38639 2.47643,1.03623 1.00111,0.64984 1.51045,1.44019 0.5269,0.79035 0.5269,1.54558 0,0.82547 -0.56203,1.35237 -0.54446,0.5269 -1.56313,0.5269 -0.73766,0 -1.26456,-0.42152 -0.50934,-0.42152 -1.17675,-1.26456 -0.54446,-0.70253 -1.28212,-1.12405 -0.73766,-0.42152 -2.00222,-0.42152 -1.29969,0 -2.16029,0.56203 -0.8606,0.54446 -0.8606,1.36994 0,0.75522 0.63228,1.24699 0.63228,0.47421 1.70364,0.79035 1.07136,0.31614 2.95064,0.77279 2.23054,0.54446 3.63561,1.29969 1.42263,0.75522 2.14273,1.79146 0.73766,1.01867 0.73766,2.33592 z m 22.00685,-3.47754 q 0,2.14273 -0.6674,3.95175 -0.66741,1.80902 -1.93197,3.10871 -1.26456,1.29969 -3.02089,2.00222 -1.75634,0.68497 -3.95175,0.68497 -2.17785,0 -3.91662,-0.70253 -1.73877,-0.70254 -3.0209,-2.00222 -1.26456,-1.31725 -1.93196,-3.09115 -0.64985,-1.79146 -0.64985,-3.95175 0,-2.17785 0.66741,-3.98688 0.66741,-1.80902 1.9144,-3.09114 1.247,-1.28212 3.0209,-1.96709 1.77389,-0.70254 3.91662,-0.70254 2.17785,0 3.95175,0.70254 1.77389,0.70253 3.03845,2.00221 1.26456,1.29969 1.91441,3.09115 0.6674,1.79146 0.6674,3.95175 z m -4.81235,0 q 0,-2.93308 -1.29969,-4.56647 -1.28212,-1.63339 -3.45997,-1.63339 -1.40507,0 -2.47643,0.73766 -1.07136,0.7201 -1.65095,2.14273 -0.57959,1.42263 -0.57959,3.31947 0,1.87928 0.56202,3.28434 0.57959,1.40507 1.63339,2.16029 1.07136,0.73766 2.51156,0.73766 2.17785,0 3.45997,-1.63339 1.29969,-1.65095 1.29969,-4.5489 z m 21.04086,7.0429 v -0.61472 q -0.8606,1.08893 -1.80902,1.82659 -0.94842,0.73766 -2.07248,1.08892 -1.12405,0.36883 -2.56424,0.36883 -1.73877,0 -3.12627,-0.72009 -1.36994,-0.7201 -2.12517,-1.98466 -0.89573,-1.52801 -0.89573,-4.39083 v -9.50177 q 0,-1.44019 0.64985,-2.14272 0.64984,-0.7201 1.7212,-0.7201 1.08893,0 1.75634,0.7201 0.6674,0.7201 0.6674,2.14272 v 7.67518 q 0,1.66852 0.28102,2.81013 0.28101,1.12406 1.00111,1.7739 0.73766,0.63228 1.98465,0.63228 1.21187,0 2.28323,-0.7201 1.07137,-0.72009 1.56314,-1.87927 0.40396,-1.01868 0.40396,-4.46109 v -5.83103 q 0,-1.42262 0.6674,-2.14272 0.66741,-0.7201 1.73877,-0.7201 1.07137,0 1.72121,0.7201 0.64984,0.70253 0.64984,2.14272 v 13.8926 q 0,1.36994 -0.63228,2.05491 -0.61471,0.68497 -1.59826,0.68497 -0.98355,0 -1.63339,-0.70253 -0.63228,-0.7201 -0.63228,-2.00222 z m 14.03309,-4.2152 v 4.00444 q 0,1.45775 -0.68497,2.19541 -0.68497,0.7201 -1.73877,0.7201 -1.03623,0 -1.70364,-0.73766 -0.66741,-0.73766 -0.66741,-2.17785 v -13.34814 q 0,-3.23165 2.33593,-3.23165 1.1943,0 1.7212,0.75523 0.5269,0.75522 0.57959,2.23054 0.86061,-1.47532 1.75634,-2.23054 0.91329,-0.75523 2.42373,-0.75523 1.51045,0 2.93308,0.75523 1.42263,0.75522 1.42263,2.00221 0,0.87817 -0.61472,1.45776 -0.59715,0.56203 -1.29968,0.56203 -0.26345,0 -1.28213,-0.31614 -1.00111,-0.33371 -1.77389,-0.33371 -1.0538,0 -1.72121,0.56203 -0.6674,0.54446 -1.03623,1.63339 -0.36883,1.08893 -0.50934,2.59937 -0.14051,1.49289 -0.14051,3.65318 z m 27.2583,0.98354 q 0,0.89573 -0.54447,1.91441 -0.5269,1.01867 -1.63339,1.94953 -1.08892,0.91329 -2.75744,1.47532 -1.66852,0.56202 -3.75855,0.56202 -4.44353,0 -6.93752,-2.58181 -2.49399,-2.59937 -2.49399,-6.95508 0,-2.95064 1.14162,-5.21631 1.14161,-2.26567 3.3019,-3.4951 2.16029,-1.24699 5.16362,-1.24699 1.86171,0 3.40729,0.54446 1.56313,0.54446 2.6345,1.40506 1.08892,0.86061 1.65095,1.84415 0.57959,0.96599 0.57959,1.80903 0,0.8606 -0.64984,1.45775 -0.63228,0.59716 -1.54558,0.59716 -0.59715,0 -1.00111,-0.29858 -0.38639,-0.31614 -0.87816,-1.00111 -0.87817,-1.33481 -1.84415,-2.00222 -0.94842,-0.66741 -2.42374,-0.66741 -2.12517,0 -3.42485,1.66852 -1.29969,1.65095 -1.29969,4.53134 0,1.35238 0.3337,2.49399 0.33371,1.12406 0.96599,1.93197 0.63228,0.79035 1.52801,1.21187 0.89573,0.40396 1.96709,0.40396 1.44019,0 2.45887,-0.66741 1.03623,-0.66741 1.82658,-2.03735 0.43909,-0.80791 0.94842,-1.26456 0.50934,-0.45664 1.247,-0.45664 0.87817,0 1.45776,0.6674 0.57959,0.66741 0.57959,1.42263 z m 17.56333,-2.6345 h -9.37882 q 0.0176,1.63339 0.64984,2.88039 0.64984,1.247 1.70364,1.87928 1.07137,0.63228 2.35349,0.63228 0.8606,0 1.56314,-0.1932 0.72009,-0.21076 1.3875,-0.63228 0.66741,-0.43908 1.22943,-0.93086 0.56203,-0.49177 1.45776,-1.33481 0.36883,-0.31614 1.0538,-0.31614 0.73766,0 1.19431,0.40396 0.45664,0.40395 0.45664,1.14161 0,0.64985 -0.50933,1.52801 -0.50934,0.86061 -1.54558,1.66852 -1.01867,0.79035 -2.58181,1.31725 -1.54557,0.5269 -3.56535,0.5269 -4.61916,0 -7.18341,-2.6345 -2.56424,-2.6345 -2.56424,-7.14828 0,-2.12516 0.63228,-3.93418 0.63228,-1.82659 1.84415,-3.12628 1.21187,-1.29968 2.98576,-1.98465 1.7739,-0.70253 3.93419,-0.70253 2.81013,0 4.81235,1.1943 2.01979,1.17674 3.0209,3.05602 1.00111,1.87928 1.00111,3.82881 0,1.80902 -1.03624,2.35348 -1.03624,0.5269 -2.91551,0.5269 z m -9.37882,-2.72231 h 8.69385 q -0.17564,-2.45887 -1.33482,-3.67074 -1.14161,-1.22943 -3.02089,-1.22943 -1.79146,0 -2.95064,1.24699 -1.14162,1.22944 -1.3875,3.65318 z m 42.31007,1.89684 v 6.37549 q 0,1.51044 -0.68497,2.26567 -0.68497,0.75522 -1.80903,0.75522 -1.08892,0 -1.77389,-0.75522 -0.66741,-0.75523 -0.66741,-2.26567 V 384.279 q 0,-1.80903 -0.12294,-2.81014 -0.12295,-1.00111 -0.66741,-1.63339 -0.54446,-0.64984 -1.72121,-0.64984 -2.35348,0 -3.1087,1.61583 -0.73766,1.61582 -0.73766,4.63672 v 6.48087 q 0,1.49288 -0.68497,2.26567 -0.66741,0.75522 -1.7739,0.75522 -1.08893,0 -1.79146,-0.75522 -0.68497,-0.77279 -0.68497,-2.26567 v -13.71697 q 0,-1.35237 0.61472,-2.0549 0.63228,-0.70254 1.65095,-0.70254 0.98355,0 1.63339,0.66741 0.66741,0.64984 0.66741,1.80902 v 0.45665 q 1.24699,-1.49288 2.66962,-2.19542 1.42263,-0.70253 3.1614,-0.70253 1.80902,0 3.10871,0.7201 1.29969,0.72009 2.14273,2.17785 1.21187,-1.47532 2.59937,-2.17785 1.3875,-0.7201 3.07358,-0.7201 1.9671,0 3.38972,0.77279 1.42263,0.77278 2.12517,2.21297 0.61471,1.29969 0.61471,4.09226 v 9.36126 q 0,1.51044 -0.68497,2.26567 -0.68497,0.75522 -1.80902,0.75522 -1.08893,0 -1.79146,-0.75522 -0.68497,-0.77279 -0.68497,-2.26567 v -8.06157 q 0,-1.54558 -0.1405,-2.47643 -0.12295,-0.93086 -0.70254,-1.56314 -0.57959,-0.63228 -1.75633,-0.63228 -0.94842,0 -1.80902,0.56203 -0.84304,0.56202 -1.31725,1.51044 -0.5269,1.21187 -0.5269,4.28546 z m 29.26049,0.82547 h -9.37882 q 0.0176,1.63339 0.64984,2.88039 0.64985,1.247 1.70365,1.87928 1.07136,0.63228 2.35348,0.63228 0.86061,0 1.56314,-0.1932 0.72009,-0.21076 1.3875,-0.63228 0.66741,-0.43908 1.22943,-0.93086 0.56203,-0.49177 1.45776,-1.33481 0.36883,-0.31614 1.0538,-0.31614 0.73766,0 1.19431,0.40396 0.45664,0.40395 0.45664,1.14161 0,0.64985 -0.50933,1.52801 -0.50934,0.86061 -1.54558,1.66852 -1.01867,0.79035 -2.58181,1.31725 -1.54557,0.5269 -3.56535,0.5269 -4.61916,0 -7.1834,-2.6345 -2.56425,-2.6345 -2.56425,-7.14828 0,-2.12516 0.63228,-3.93418 0.63228,-1.82659 1.84415,-3.12628 1.21187,-1.29968 2.98577,-1.98465 1.77389,-0.70253 3.93418,-0.70253 2.81013,0 4.81235,1.1943 2.01979,1.17674 3.0209,3.05602 1.00111,1.87928 1.00111,3.82881 0,1.80902 -1.03624,2.35348 -1.03624,0.5269 -2.91551,0.5269 z m -9.37882,-2.72231 h 8.69385 q -0.17564,-2.45887 -1.33482,-3.67074 -1.14161,-1.22943 -3.02089,-1.22943 -1.79146,0 -2.95064,1.24699 -1.14161,1.22944 -1.3875,3.65318 z m 32.8083,5.02311 q 0,1.98466 -0.96598,3.40729 -0.96599,1.40506 -2.86283,2.14272 -1.87927,0.7201 -4.58402,0.7201 -2.58181,0 -4.42596,-0.79035 -1.84415,-0.79035 -2.72232,-1.96709 -0.87817,-1.19431 -0.87817,-2.38862 0,-0.79035 0.56203,-1.35237 0.56203,-0.56203 1.42263,-0.56203 0.75522,0 1.15918,0.36883 0.40396,0.36883 0.77279,1.03624 0.73766,1.28212 1.75633,1.9144 1.03624,0.63228 2.81013,0.63228 1.44019,0 2.35349,-0.63228 0.93085,-0.64984 0.93085,-1.47532 0,-1.26456 -0.96598,-1.84415 -0.94842,-0.57959 -3.14383,-1.10649 -2.47643,-0.61472 -4.03957,-1.28212 -1.54557,-0.68497 -2.47643,-1.79146 -0.93086,-1.10649 -0.93086,-2.72232 0,-1.44019 0.86061,-2.72232 0.8606,-1.28212 2.52912,-2.03734 1.68608,-0.77279 4.05713,-0.77279 1.86171,0 3.33703,0.3864 1.49288,0.38639 2.47643,1.03623 1.00111,0.64984 1.51044,1.44019 0.5269,0.79035 0.5269,1.54558 0,0.82547 -0.56202,1.35237 -0.54447,0.5269 -1.56314,0.5269 -0.73766,0 -1.26456,-0.42152 -0.50934,-0.42152 -1.17674,-1.26456 -0.54447,-0.70253 -1.28213,-1.12405 -0.73766,-0.42152 -2.00221,-0.42152 -1.29969,0 -2.16029,0.56203 -0.86061,0.54446 -0.86061,1.36994 0,0.75522 0.63228,1.24699 0.63228,0.47421 1.70365,0.79035 1.07136,0.31614 2.95063,0.77279 2.23055,0.54446 3.63561,1.29969 1.42263,0.75522 2.14273,1.79146 0.73766,1.01867 0.73766,2.33592 z m 19.4953,0 q 0,1.98466 -0.96598,3.40729 -0.96599,1.40506 -2.86283,2.14272 -1.87927,0.7201 -4.58402,0.7201 -2.58181,0 -4.42596,-0.79035 -1.84415,-0.79035 -2.72232,-1.96709 -0.87817,-1.19431 -0.87817,-2.38862 0,-0.79035 0.56203,-1.35237 0.56203,-0.56203 1.42263,-0.56203 0.75522,0 1.15918,0.36883 0.40396,0.36883 0.77279,1.03624 0.73766,1.28212 1.75633,1.9144 1.03624,0.63228 2.81013,0.63228 1.44019,0 2.35349,-0.63228 0.93085,-0.64984 0.93085,-1.47532 0,-1.26456 -0.96598,-1.84415 -0.94842,-0.57959 -3.14383,-1.10649 -2.47643,-0.61472 -4.03957,-1.28212 -1.54557,-0.68497 -2.47643,-1.79146 -0.93086,-1.10649 -0.93086,-2.72232 0,-1.44019 0.86061,-2.72232 0.8606,-1.28212 2.52912,-2.03734 1.68608,-0.77279 4.05713,-0.77279 1.86171,0 3.33703,0.3864 1.49288,0.38639 2.47643,1.03623 1.00111,0.64984 1.51044,1.44019 0.5269,0.79035 0.5269,1.54558 0,0.82547 -0.56202,1.35237 -0.54447,0.5269 -1.56314,0.5269 -0.73766,0 -1.26456,-0.42152 -0.50934,-0.42152 -1.17674,-1.26456 -0.54447,-0.70253 -1.28213,-1.12405 -0.73765,-0.42152 -2.00221,-0.42152 -1.29969,0 -2.16029,0.56203 -0.86061,0.54446 -0.86061,1.36994 0,0.75522 0.63228,1.24699 0.63228,0.47421 1.70365,0.79035 1.07136,0.31614 2.95063,0.77279 2.23055,0.54446 3.63561,1.29969 1.42263,0.75522 2.14273,1.79146 0.73766,1.01867 0.73766,2.33592 z m 16.17583,3.56536 q -1.73877,1.35237 -3.37216,2.03734 -1.61582,0.66741 -3.63561,0.66741 -1.84415,0 -3.24921,-0.7201 -1.38751,-0.73766 -2.14273,-1.98465 -0.75522,-1.247 -0.75522,-2.70476 0,-1.96709 1.24699,-3.35459 1.247,-1.38751 3.42485,-1.86172 0.45665,-0.10538 2.26567,-0.47421 1.80903,-0.36883 3.09115,-0.6674 1.29968,-0.31614 2.81013,-0.75523 -0.0878,-1.89684 -0.77279,-2.775 -0.6674,-0.89573 -2.79256,-0.89573 -1.82659,0 -2.75745,0.50933 -0.91329,0.50934 -1.5807,1.52801 -0.64984,1.01868 -0.93085,1.35238 -0.26345,0.31614 -1.15918,0.31614 -0.80792,0 -1.40507,-0.50934 -0.57959,-0.5269 -0.57959,-1.33481 0,-1.26456 0.89573,-2.45887 0.89573,-1.1943 2.79257,-1.96709 1.89684,-0.77278 4.72454,-0.77278 3.16139,0 4.97042,0.75522 1.80902,0.73766 2.54668,2.35348 0.75522,1.61583 0.75522,4.28546 0,1.68608 -0.0176,2.86282 0,1.17674 -0.0176,2.61694 0,1.35237 0.43908,2.82769 0.45665,1.45776 0.45665,1.87928 0,0.73766 -0.70254,1.35238 -0.68497,0.59715 -1.56313,0.59715 -0.73766,0 -1.45776,-0.68497 -0.7201,-0.70253 -1.52801,-2.01978 z m -0.31614,-6.93752 q -1.0538,0.38639 -3.07358,0.82548 -2.00222,0.42152 -2.77501,0.63228 -0.77278,0.19319 -1.47532,0.79035 -0.70253,0.57959 -0.70253,1.63339 0,1.08892 0.82548,1.86171 0.82547,0.75522 2.16029,0.75522 1.42263,0 2.61693,-0.61471 1.21187,-0.63228 1.7739,-1.61583 0.64984,-1.08893 0.64984,-3.58292 z m 26.73142,-6.34036 v 13.92772 q 0,2.38861 -0.50934,4.10982 -0.50934,1.7212 -1.63339,2.84526 -1.12405,1.12405 -2.95064,1.66851 -1.80902,0.54447 -4.51377,0.54447 -2.47643,0 -4.42596,-0.70254 -1.94953,-0.68497 -3.00333,-1.79146 -1.0538,-1.08892 -1.0538,-2.2481 0,-0.87817 0.59715,-1.4402 0.59715,-0.54446 1.44019,-0.54446 1.0538,0 1.84415,0.93086 0.3864,0.47421 0.79035,0.94842 0.42152,0.49177 0.9133,0.82547 0.50933,0.35127 1.21187,0.50934 0.70253,0.17563 1.61582,0.17563 1.86172,0 2.88039,-0.5269 1.03624,-0.50933 1.44019,-1.44019 0.42152,-0.93086 0.49178,-2.00222 0.0702,-1.0538 0.10538,-3.40728 -1.10649,1.54557 -2.56425,2.35348 -1.44019,0.80792 -3.44241,0.80792 -2.40618,0 -4.2152,-1.22944 -1.79146,-1.22943 -2.75745,-3.44241 -0.96598,-2.21298 -0.96598,-5.11093 0,-2.16029 0.57959,-3.89906 0.59715,-1.73877 1.68608,-2.93308 1.08893,-1.1943 2.51156,-1.79145 1.42263,-0.61472 3.12627,-0.61472 2.03735,0 3.53023,0.79035 1.49288,0.77278 2.77501,2.4413 v -0.64984 q 0,-1.247 0.61471,-1.93197 0.61472,-0.68497 1.5807,-0.68497 1.3875,0 1.84415,0.9133 0.45665,0.89572 0.45665,2.59937 z m -13.8926,6.07691 q 0,2.91551 1.26456,4.4084 1.28213,1.49288 3.30191,1.49288 1.19431,0 2.24811,-0.63228 1.07136,-0.64984 1.73877,-1.93197 0.6674,-1.29968 0.6674,-3.14383 0,-2.93308 -1.29968,-4.56647 -1.28213,-1.63339 -3.38973,-1.63339 -2.05491,0 -3.3019,1.56314 -1.22944,1.56313 -1.22944,4.44352 z m 23.53485,-6.86726 v 13.85747 q 0,1.44019 -0.68497,2.17785 -0.68497,0.73766 -1.73877,0.73766 -1.0538,0 -1.7212,-0.75522 -0.64985,-0.75523 -0.64985,-2.16029 v -13.71697 q 0,-1.42262 0.64985,-2.14272 0.6674,-0.7201 1.7212,-0.7201 1.0538,0 1.73877,0.7201 0.68497,0.7201 0.68497,2.00222 z m -2.37105,-4.95286 q -1.00111,0 -1.7212,-0.61472 -0.70254,-0.61471 -0.70254,-1.73877 0,-1.01867 0.7201,-1.66851 0.73766,-0.66741 1.70364,-0.66741 0.93086,0 1.65096,0.59715 0.72009,0.59716 0.72009,1.73877 0,1.10649 -0.70253,1.73877 -0.70253,0.61472 -1.66852,0.61472 z m 11.67959,4.8826 v 0.57959 q 1.26456,-1.66851 2.75744,-2.4413 1.51045,-0.79035 3.45998,-0.79035 1.89684,0 3.38972,0.82548 1.49288,0.82547 2.23054,2.33592 0.47421,0.87817 0.61472,1.89684 0.14051,1.01867 0.14051,2.59937 v 8.92218 q 0,1.44019 -0.66741,2.17785 -0.64984,0.73766 -1.70364,0.73766 -1.07137,0 -1.73877,-0.75522 -0.66741,-0.75523 -0.66741,-2.16029 v -7.99132 q 0,-2.37105 -0.66741,-3.61805 -0.64984,-1.26456 -2.61693,-1.26456 -1.28213,0 -2.33593,0.77279 -1.0538,0.75522 -1.54557,2.09004 -0.35127,1.07136 -0.35127,4.00444 v 6.00666 q 0,1.45775 -0.68496,2.19541 -0.66741,0.7201 -1.73877,0.7201 -1.03624,0 -1.70365,-0.75522 -0.6674,-0.75523 -0.6674,-2.16029 v -13.85747 q 0,-1.36994 0.59715,-2.03735 0.59715,-0.68497 1.63339,-0.68497 0.63228,0 1.14162,0.29858 0.50933,0.29858 0.80791,0.89573 0.31614,0.59715 0.31614,1.45775 z m 35.00371,0.86061 v 13.92772 q 0,2.38861 -0.50934,4.10982 -0.50934,1.7212 -1.63339,2.84526 -1.12405,1.12405 -2.95064,1.66851 -1.80902,0.54447 -4.51378,0.54447 -2.47643,0 -4.42595,-0.70254 -1.94953,-0.68497 -3.00333,-1.79146 -1.0538,-1.08892 -1.0538,-2.2481 0,-0.87817 0.59715,-1.4402 0.59715,-0.54446 1.44019,-0.54446 1.0538,0 1.84415,0.93086 0.3864,0.47421 0.79035,0.94842 0.42152,0.49177 0.91329,0.82547 0.50934,0.35127 1.21187,0.50934 0.70254,0.17563 1.61583,0.17563 1.86171,0 2.88039,-0.5269 1.03623,-0.50933 1.44019,-1.44019 0.42152,-0.93086 0.49177,-2.00222 0.0703,-1.0538 0.10538,-3.40728 -1.10649,1.54557 -2.56424,2.35348 -1.4402,0.80792 -3.44242,0.80792 -2.40617,0 -4.21519,-1.22944 -1.79146,-1.22943 -2.75745,-3.44241 -0.96598,-2.21298 -0.96598,-5.11093 0,-2.16029 0.57959,-3.89906 0.59715,-1.73877 1.68608,-2.93308 1.08893,-1.1943 2.51156,-1.79145 1.42262,-0.61472 3.12627,-0.61472 2.03734,0 3.53023,0.79035 1.49288,0.77278 2.775,2.4413 v -0.64984 q 0,-1.247 0.61472,-1.93197 0.61472,-0.68497 1.5807,-0.68497 1.3875,0 1.84415,0.9133 0.45665,0.89572 0.45665,2.59937 z m -13.8926,6.07691 q 0,2.91551 1.26456,4.4084 1.28212,1.49288 3.30191,1.49288 1.1943,0 2.2481,-0.63228 1.07137,-0.64984 1.73877,-1.93197 0.66741,-1.29968 0.66741,-3.14383 0,-2.93308 -1.29969,-4.56647 -1.28212,-1.63339 -3.38972,-1.63339 -2.05491,0 -3.30191,1.56314 -1.22943,1.56313 -1.22943,4.44352 z m 43.17069,3.63561 q 0,1.98466 -0.96598,3.40729 -0.96599,1.40506 -2.86283,2.14272 -1.87927,0.7201 -4.58402,0.7201 -2.58181,0 -4.42596,-0.79035 -1.84415,-0.79035 -2.72232,-1.96709 -0.87817,-1.19431 -0.87817,-2.38862 0,-0.79035 0.56203,-1.35237 0.56203,-0.56203 1.42263,-0.56203 0.75522,0 1.15918,0.36883 0.40396,0.36883 0.77279,1.03624 0.73766,1.28212 1.75633,1.9144 1.03624,0.63228 2.81013,0.63228 1.44019,0 2.35349,-0.63228 0.93085,-0.64984 0.93085,-1.47532 0,-1.26456 -0.96598,-1.84415 -0.94842,-0.57959 -3.14383,-1.10649 -2.47643,-0.61472 -4.03957,-1.28212 -1.54557,-0.68497 -2.47643,-1.79146 -0.93086,-1.10649 -0.93086,-2.72232 0,-1.44019 0.86061,-2.72232 0.8606,-1.28212 2.52912,-2.03734 1.68608,-0.77279 4.05713,-0.77279 1.86171,0 3.33703,0.3864 1.49288,0.38639 2.47643,1.03623 1.00111,0.64984 1.51044,1.44019 0.5269,0.79035 0.5269,1.54558 0,0.82547 -0.56202,1.35237 -0.54447,0.5269 -1.56314,0.5269 -0.73766,0 -1.26456,-0.42152 -0.50934,-0.42152 -1.17674,-1.26456 -0.54447,-0.70253 -1.28213,-1.12405 -0.73765,-0.42152 -2.00221,-0.42152 -1.29969,0 -2.16029,0.56203 -0.86061,0.54446 -0.86061,1.36994 0,0.75522 0.63228,1.24699 0.63228,0.47421 1.70365,0.79035 1.07136,0.31614 2.95063,0.77279 2.23055,0.54446 3.63561,1.29969 1.42263,0.75522 2.14273,1.79146 0.73766,1.01867 0.73766,2.33592 z m 17.44039,-2.3008 h -9.37882 q 0.0176,1.63339 0.64985,2.88039 0.64984,1.247 1.70364,1.87928 1.07136,0.63228 2.35349,0.63228 0.8606,0 1.56313,-0.1932 0.7201,-0.21076 1.3875,-0.63228 0.66741,-0.43908 1.22944,-0.93086 0.56202,-0.49177 1.45775,-1.33481 0.36883,-0.31614 1.0538,-0.31614 0.73766,0 1.19433,0.40396 0.4566,0.40395 0.4566,1.14161 0,0.64985 -0.5093,1.52801 -0.50935,0.86061 -1.54558,1.66852 -1.01868,0.79035 -2.58181,1.31725 -1.54558,0.5269 -3.56536,0.5269 -4.61915,0 -7.1834,-2.6345 -2.56425,-2.6345 -2.56425,-7.14828 0,-2.12516 0.63228,-3.93418 0.63228,-1.82659 1.84415,-3.12628 1.21187,-1.29968 2.98577,-1.98465 1.7739,-0.70253 3.93419,-0.70253 2.81013,0 4.81235,1.1943 2.01978,1.17674 3.02086,3.05602 1.0011,1.87928 1.0011,3.82881 0,1.80902 -1.0362,2.35348 -1.03623,0.5269 -2.91551,0.5269 z m -9.37882,-2.72231 h 8.69385 q -0.17563,-2.45887 -1.33481,-3.67074 -1.14162,-1.22943 -3.02089,-1.22943 -1.79146,0 -2.95064,1.24699 -1.14162,1.22944 -1.38751,3.65318 z m 22.12983,4.37327 v 4.00444 q 0,1.45775 -0.685,2.19541 -0.685,0.7201 -1.7388,0.7201 -1.0362,0 -1.7036,-0.73766 -0.6674,-0.73766 -0.6674,-2.17785 v -13.34814 q 0,-3.23165 2.3359,-3.23165 1.1943,0 1.7212,0.75523 0.5269,0.75522 0.5796,2.23054 0.8606,-1.47532 1.7563,-2.23054 0.9133,-0.75523 2.4238,-0.75523 1.5104,0 2.933,0.75523 1.4227,0.75522 1.4227,2.00221 0,0.87817 -0.6147,1.45776 -0.5972,0.56203 -1.2997,0.56203 -0.2635,0 -1.2821,-0.31614 -1.0012,-0.33371 -1.7739,-0.33371 -1.0538,0 -1.7213,0.56203 -0.6674,0.54446 -1.0362,1.63339 -0.3688,1.08893 -0.5093,2.59937 -0.1405,1.49289 -0.1405,3.65318 z m 13.9101,-9.58958 3.8815,10.88926 4.1801,-11.36347 q 0.4918,-1.36994 0.966,-1.93197 0.4742,-0.57959 1.4402,-0.57959 0.9133,0 1.5455,0.61472 0.6499,0.61472 0.6499,1.42263 0,0.31614 -0.123,0.73766 -0.1053,0.42152 -0.2634,0.79035 -0.1405,0.36883 -0.3337,0.84304 l -4.6016,11.41616 q -0.1932,0.49178 -0.5093,1.247 -0.2986,0.75522 -0.685,1.29969 -0.3688,0.5269 -0.9309,0.82547 -0.5444,0.29858 -1.3348,0.29858 -1.0187,0 -1.6334,-0.45665 -0.5971,-0.47421 -0.8957,-1.01867 -0.281,-0.56203 -0.966,-2.19542 l -4.5665,-11.29322 q -0.158,-0.42152 -0.3337,-0.84304 -0.158,-0.42152 -0.281,-0.8606 -0.1053,-0.43909 -0.1053,-0.75523 0,-0.49177 0.2985,-0.96598 0.2986,-0.49177 0.8255,-0.79035 0.5269,-0.31614 1.1416,-0.31614 1.1943,0 1.6334,0.68497 0.4567,0.68497 1.0011,2.3008 z m 20.9004,-0.26345 v 13.85747 q 0,1.44019 -0.685,2.17785 -0.685,0.73766 -1.7388,0.73766 -1.0538,0 -1.7212,-0.75522 -0.6498,-0.75523 -0.6498,-2.16029 v -13.71697 q 0,-1.42262 0.6498,-2.14272 0.6674,-0.7201 1.7212,-0.7201 1.0538,0 1.7388,0.7201 0.685,0.7201 0.685,2.00222 z m -2.3711,-4.95286 q -1.0011,0 -1.7212,-0.61472 -0.7025,-0.61471 -0.7025,-1.73877 0,-1.01867 0.7201,-1.66851 0.7377,-0.66741 1.7036,-0.66741 0.9309,0 1.651,0.59715 0.7201,0.59716 0.7201,1.73877 0,1.10649 -0.7025,1.73877 -0.7026,0.61472 -1.6686,0.61472 z m 24.5185,15.78943 q 0,0.89573 -0.5445,1.91441 -0.5269,1.01867 -1.6334,1.94953 -1.0889,0.91329 -2.7574,1.47532 -1.6685,0.56202 -3.7586,0.56202 -4.4435,0 -6.9375,-2.58181 -2.494,-2.59937 -2.494,-6.95508 0,-2.95064 1.1416,-5.21631 1.1417,-2.26567 3.3019,-3.4951 2.1603,-1.24699 5.1637,-1.24699 1.8617,0 3.4072,0.54446 1.5632,0.54446 2.6345,1.40506 1.089,0.86061 1.651,1.84415 0.5796,0.96599 0.5796,1.80903 0,0.8606 -0.6499,1.45775 -0.6322,0.59716 -1.5455,0.59716 -0.5972,0 -1.0011,-0.29858 -0.3864,-0.31614 -0.8782,-1.00111 -0.8782,-1.33481 -1.8442,-2.00222 -0.9484,-0.66741 -2.4237,-0.66741 -2.1252,0 -3.4248,1.66852 -1.2997,1.65095 -1.2997,4.53134 0,1.35238 0.3337,2.49399 0.3337,1.12406 0.966,1.93197 0.6322,0.79035 1.528,1.21187 0.8957,0.40396 1.9671,0.40396 1.4402,0 2.4588,-0.66741 1.0363,-0.66741 1.8266,-2.03735 0.4391,-0.80791 0.9484,-1.26456 0.5094,-0.45664 1.247,-0.45664 0.8782,0 1.4578,0.6674 0.5796,0.66741 0.5796,1.42263 z m 17.5633,-2.6345 h -9.3788 q 0.018,1.63339 0.6498,2.88039 0.6499,1.247 1.7037,1.87928 1.0713,0.63228 2.3535,0.63228 0.8606,0 1.5631,-0.1932 0.7201,-0.21076 1.3875,-0.63228 0.6674,-0.43908 1.2294,-0.93086 0.5621,-0.49177 1.4578,-1.33481 0.3688,-0.31614 1.0538,-0.31614 0.7377,0 1.1943,0.40396 0.4566,0.40395 0.4566,1.14161 0,0.64985 -0.5093,1.52801 -0.5093,0.86061 -1.5456,1.66852 -1.0186,0.79035 -2.5818,1.31725 -1.5455,0.5269 -3.5653,0.5269 -4.6192,0 -7.1834,-2.6345 -2.5643,-2.6345 -2.5643,-7.14828 0,-2.12516 0.6323,-3.93418 0.6323,-1.82659 1.8442,-3.12628 1.2118,-1.29968 2.9857,-1.98465 1.7739,-0.70253 3.9342,-0.70253 2.8101,0 4.8124,1.1943 2.0197,1.17674 3.0208,3.05602 1.0012,1.87928 1.0012,3.82881 0,1.80902 -1.0363,2.35348 -1.0362,0.5269 -2.9155,0.5269 z m -9.3788,-2.72231 h 8.6938 q -0.1756,-2.45887 -1.3348,-3.67074 -1.1416,-1.22943 -3.0209,-1.22943 -1.7914,0 -2.9506,1.24699 -1.1416,1.22944 -1.3875,3.65318 z m 18.7576,11.29322 q -1.0889,0 -1.8793,-0.70253 -0.7903,-0.70254 -0.7903,-1.9671 0,-1.07136 0.7552,-1.84415 0.7552,-0.77278 1.8617,-0.77278 1.1065,0 1.8793,0.77278 0.7903,0.75523 0.7903,1.84415 0,1.247 -0.7903,1.9671 -0.7728,0.70253 -1.8266,0.70253 z"
                id="text2"
                style="font-size:35.9697px;font-family:'Arial Rounded MT Bold';-inkscape-font-specification:'Arial Rounded MT Bold, ';fill:#ffffff;stroke-width:1.49874"
                aria-label="Free and open-source messaging service."/>
    </g>
</svg>
