<?xml version="1.0" encoding="UTF-8" standalone="no"?>
<!-- Created with Inkscape (http://www.inkscape.org/) -->

<svg
        xmlns:inkscape="http://www.inkscape.org/namespaces/inkscape"
        xmlns:sodipodi="http://sodipodi.sourceforge.net/DTD/sodipodi-0.dtd"
        xmlns:xlink="http://www.w3.org/1999/xlink"
        width="100"
        height="100"
        viewBox="0 0 26.458333 26.458333"
        version="1.1"
        id="svg1"
        inkscape:version="1.3.2 (091e20e, 2023-11-25, custom)"
        sodipodi:docname="cactuslogo_square.svg"
        xmlns="http://www.w3.org/2000/svg"
>
    <sodipodi:namedview
            id="namedview1"
            pagecolor="#505050"
            bordercolor="#eeeeee"
            borderopacity="1"
            inkscape:showpageshadow="0"
            inkscape:pageopacity="0"
            inkscape:pagecheckerboard="0"
            inkscape:deskcolor="#505050"
            inkscape:document-units="px"
            inkscape:zoom="4.1373683"
            inkscape:cx="51.602851"
            inkscape:cy="44.110166"
            inkscape:window-width="1920"
            inkscape:window-height="1017"
            inkscape:window-x="-8"
            inkscape:window-y="-8"
            inkscape:window-maximized="1"
            inkscape:current-layer="layer1"/>
    <defs
            id="defs1">
        <linearGradient
                id="linearGradient1"
                inkscape:collect="always">
            <stop
                    style="stop-color:#2600a3;stop-opacity:1;"
                    offset="0"
                    id="stop1"/>
            <stop
                    style="stop-color:#800080;stop-opacity:1;"
                    offset="1"
                    id="stop2"/>
        </linearGradient>
        <inkscape:path-effect
                effect="powerstroke"
                id="path-effect9"
                is_visible="true"
                lpeversion="1.3"
                scale_width="1"
                interpolator_type="CentripetalCatmullRom"
                interpolator_beta="0.2"
                start_linecap_type="zerowidth"
                end_linecap_type="zerowidth"
                offset_points="0,-0.78253559 | 1,-1.1370321"
                linejoin_type="round"
                miter_limit="4"
                not_jump="false"
                sort_points="true"
                message="&lt;b&gt;Ctrl + click&lt;/b&gt; on existing node and move it"/>
        <inkscape:path-effect
                effect="powerstroke"
                id="path-effect7"
                is_visible="true"
                lpeversion="1.3"
                scale_width="1"
                interpolator_type="CentripetalCatmullRom"
                interpolator_beta="0.2"
                start_linecap_type="zerowidth"
                end_linecap_type="zerowidth"
                offset_points="0,-0.78253559 | 1,-1.1370321"
                linejoin_type="round"
                miter_limit="4"
                not_jump="false"
                sort_points="true"
                message="&lt;b&gt;Ctrl + click&lt;/b&gt; on existing node and move it"/>
        <linearGradient
                inkscape:collect="always"
                xlink:href="#linearGradient1"
                id="linearGradient2"
                x1="-0.026488822"
                y1="13.246947"
                x2="26.479708"
                y2="13.246947"
                gradientUnits="userSpaceOnUse"/>
    </defs>
    <g
            inkscape:label="Layer 1"
            inkscape:groupmode="layer"
            id="layer1">
        <rect
                style="fill:url(#linearGradient2);stroke-width:0.264583"
                id="rect1"
                width="26.506197"
                height="26.418972"
                x="-0.026488822"
                y="0.037460845"
                ry="0"
                rx="0"/>
        <rect
                style="fill:#ffffff;fill-opacity:1;fill-rule:nonzero;stroke-width:0.264583"
                id="rect36"
                width="3.2614334"
                height="20.847595"
                x="11.574892"
                y="2.8777347"
                rx="2.3981152"
                ry="1.470845"/>
        <path
                style="fill:#ffffff;fill-opacity:1;fill-rule:nonzero;stroke:none;stroke-width:0.0607613"
                id="path5"
                sodipodi:type="arc"
                sodipodi:cx="14.812135"
                sodipodi:cy="9.3430395"
                sodipodi:rx="5.5777149"
                sodipodi:ry="5.5777149"
                sodipodi:start="0"
                sodipodi:end="1.5707963"
                sodipodi:open="true"
                sodipodi:arc-type="arc"
                inkscape:path-effect="#path-effect7"
                d="m 20.38985,9.3430395 c 0.115586,0 0.586834,-0.2254252 0.782535,0 0.217534,0.2505741 0.418742,1.3478725 6.66e-4,2.6877605 -0.251681,0.806611 -0.700461,1.614508 -1.354542,2.318612 -0.653672,0.703663 -1.434474,1.219491 -2.241912,1.535888 -1.317805,0.516386 -2.46205,0.402069 -2.764462,0.172487 -0.322092,-0.244523 0,-0.973523 0,-1.137033 0,-0.227856 -0.266526,-0.833852 0,-1.137032 0.201024,-0.22867 0.8671,-0.363492 1.577734,-0.704162 0.445441,-0.21354 0.886189,-0.487108 1.303972,-0.854814 0.418697,-0.368509 0.758194,-0.782395 1.036158,-1.22727 0.450922,-0.721692 0.657626,-1.4624753 0.877315,-1.6544365 0.227237,-0.198556 0.632461,0 0.782536,0 z"
                transform="translate(-0.99903623,0.09668038)"/>
        <path
                style="fill:#ffffff;fill-opacity:1;fill-rule:nonzero;stroke:none;stroke-width:0.0607613"
                id="path7"
                sodipodi:type="arc"
                sodipodi:cx="14.812135"
                sodipodi:cy="9.3430395"
                sodipodi:rx="5.5777149"
                sodipodi:ry="5.5777149"
                sodipodi:start="0"
                sodipodi:end="1.5707963"
                sodipodi:open="true"
                sodipodi:arc-type="arc"
                inkscape:path-effect="#path-effect9"
                d="m 20.38985,9.3430395 c 0.115586,0 0.586834,-0.2254252 0.782535,0 0.217534,0.2505741 0.418742,1.3478725 6.66e-4,2.6877605 -0.251681,0.806611 -0.700461,1.614508 -1.354542,2.318612 -0.653672,0.703663 -1.434474,1.219491 -2.241912,1.535888 -1.317805,0.516386 -2.46205,0.402069 -2.764462,0.172487 -0.322092,-0.244523 0,-0.973523 0,-1.137033 0,-0.227856 -0.266526,-0.833852 0,-1.137032 0.201024,-0.22867 0.8671,-0.363492 1.577734,-0.704162 0.445441,-0.21354 0.886189,-0.487108 1.303972,-0.854814 0.418697,-0.368509 0.758194,-0.782395 1.036158,-1.22727 0.450922,-0.721692 0.657626,-1.4624753 0.877315,-1.6544365 0.227237,-0.198556 0.632461,0 0.782536,0 z"
                transform="matrix(-1.0822928,0,0,0.99999999,28.837089,2.6748372)"/>
        <rect
                style="fill:#ffffff;fill-opacity:1;stroke:none;stroke-width:0.302897"
                id="rect9"
                width="2.7070646"
                height="6.9548807"
                x="5.6477747"
                y="7.9465232"
                rx="2.3981152"
                ry="1.470845"/>
        <rect
                style="fill:#ffffff;fill-opacity:1;stroke:none;stroke-width:0.262077"
                id="rect10"
                width="2.7070646"
                height="5.2066503"
                x="17.707094"
                y="7.2637534"
                rx="2.3981152"
                ry="1.470845"/>
    </g>
</svg>
