<?xml version="1.0" encoding="UTF-8" standalone="no"?>
<svg
        xmlns:inkscape="http://www.inkscape.org/namespaces/inkscape"
        xmlns:sodipodi="http://sodipodi.sourceforge.net/DTD/sodipodi-0.dtd"
        version="1.1"
        id="Layer_1"
        x="0px"
        y="0px"
        viewBox="0 0 62.374923 46.527002"
        xml:space="preserve"
        sodipodi:docname="eye-icon.svg"
        width="62.374916"
        height="46.527"
        inkscape:version="1.3.2 (091e20e, 2023-11-25, custom)"
        xmlns="http://www.w3.org/2000/svg"
><defs
     id="defs1" />
    <sodipodi:namedview
            id="namedview1"
            pagecolor="#505050"
            bordercolor="#eeeeee"
            borderopacity="1"
            inkscape:showpageshadow="0"
            inkscape:pageopacity="0"
            inkscape:pagecheckerboard="0"
            inkscape:deskcolor="#505050"
            inkscape:zoom="4.5572918"
            inkscape:cx="63.195427"
            inkscape:cy="18.102857"
            inkscape:window-width="1920"
            inkscape:window-height="1017"
            inkscape:window-x="-8"
            inkscape:window-y="-8"
            inkscape:window-maximized="1"
            inkscape:current-layer="Layer_1"/>
    <g
            id="g1"
            transform="matrix(0.50760837,0,0,0.50760837,0,4)"><path
       d="m 95.73,10.81 c 10.53,7.09 19.6,17.37 26.48,29.86 l 0.67,1.22 -0.67,1.21 C 115.33,55.59 106.25,65.87 95.73,72.96 85.46,79.88 73.8,83.78 61.44,83.78 49.08,83.78 37.42,79.88 27.16,72.97 16.62,65.87 7.55,55.59 0.67,43.1 L 0,41.89 0.67,40.67 C 7.55,28.18 16.62,17.9 27.15,10.81 37.42,3.9 49.08,0 61.44,0 73.8,0 85.45,3.9 95.73,10.81 Z m -34.94,11.36 4.08,0.39 c -1.45,2.18 -2.31,4.82 -2.31,7.67 0,7.48 5.86,13.54 13.1,13.54 2.32,0 4.5,-0.62 6.39,-1.72 0.03,0.47 0.05,0.94 0.05,1.42 0,11.77 -9.54,21.31 -21.31,21.31 -11.77,0 -21.31,-9.54 -21.31,-21.31 0,-11.76 9.54,-21.3 21.31,-21.3 z M 109,41.89 C 103.5,32.23 96.39,24.29 88.21,18.78 80.16,13.36 71.06,10.3 61.44,10.3 c -9.61,0 -18.71,3.06 -26.76,8.48 -8.18,5.51 -15.29,13.45 -20.8,23.11 5.5,9.66 12.62,17.6 20.8,23.1 8.05,5.42 17.15,8.48 26.76,8.48 9.62,0 18.71,-3.06 26.77,-8.48 8.18,-5.5 15.29,-13.44 20.79,-23.1 z"
       id="path1" /></g></svg>
